<svg width="451" height="405" viewBox="0 0 451 405" fill="none" xmlns="http://www.w3.org/2000/svg">
<path d="M236.764 51.6912C352.764 158.891 388.43 193.024 391.764 196.691L427.764 161.691L308.764 14.6912H321.764L436.764 147.691L449.764 161.691L321.764 390.691L280.764 403.691L116.764 283.691L108.764 255.691L236.764 51.6912Z" fill="#F02525" stroke="#E31919"/>
<path d="M388.764 179.691L261.764 48.4799L269.234 43.6912L388.764 179.691Z" fill="#F02525" stroke="#E31919"/>
<path d="M398.931 172.691L283.368 41.7587L291.113 38.6848L398.931 172.691Z" fill="#F02525" stroke="#E31919"/>
<path d="M405.189 163.615L300.94 33.3627L308.397 30.6611L405.189 163.615Z" fill="#F02525" stroke="#E31919"/>
<path d="M372.764 218.691L285.764 375.691H293.764L379.764 218.691H372.764Z" fill="#D9D9D9" stroke="#F02525"/>
<path d="M247.164 168.788C224.416 215.828 167.269 235.243 119.522 212.153C71.7749 189.063 51.5089 132.212 74.2565 85.1724C97.0042 38.133 154.152 18.7181 201.899 41.8079C249.646 64.8978 269.912 121.749 247.164 168.788ZM95.7074 95.5458C78.6039 130.914 93.8415 173.659 129.742 191.02C165.642 208.381 208.61 193.783 225.713 158.415C242.817 123.047 227.579 80.3017 191.679 62.9409C155.779 45.58 112.811 60.1778 95.7074 95.5458Z" fill="#404040"/>
<rect width="28.9545" height="156.504" rx="10" transform="matrix(0.927755 -0.373189 -0.386917 -0.922115 240.911 355.228)" fill="#404040"/>
<ellipse cx="160.71" cy="126.981" rx="72.2161" ry="71.1458" transform="rotate(25.8078 160.71 126.981)" fill="#A8E0FB" fill-opacity="0.3"/>
<path d="M188.915 73.3629C219.6 88.2022 232.086 125.852 216.802 157.457C215.912 159.298 214.946 161.078 213.912 162.794C227.163 128.301 214.291 89.4852 183.491 71.0576C185.317 71.7311 187.127 72.4985 188.915 73.3629Z" fill="#FEFEFC"/>
</svg>
