<svg width="420" height="404" viewBox="0 0 420 404" fill="none" xmlns="http://www.w3.org/2000/svg">
<path d="M0 35.4385V368.561L29.2368 404H290.596L336.667 364.131V338.438H303.886H290.596H69.9912V368.561L48.7281 385.395L12.4035 368.561V47.842H290.596V338.438H303.886V35.4385H0Z" fill="#818181"/>
<path d="M69.9912 368.561V338.438H290.596V47.842H12.4035V368.561L48.7281 385.395L69.9912 368.561Z" fill="#D2C9C9"/>
<path d="M50.5 102.772L64.6754 92.1404L84.1667 109.86L131.123 92.1404L148.842 109.86L174.535 102.772L192.254 116.947L233.009 102.772L246.298 109.86L267.561 102.772V109.86L246.298 116.947L233.009 109.86L192.254 124.921L174.535 109.86L148.842 116.947L128.465 99.2281L84.1667 116.947L64.6754 99.2281L50.5 109.86V102.772Z" fill="black"/>
<path d="M50.5 102.772L64.6754 92.1404L84.1667 109.86L131.123 92.1404L148.842 109.86L174.535 102.772L192.254 116.947L233.009 102.772L246.298 109.86L267.561 102.772V109.86L246.298 116.947L233.009 109.86L192.254 124.921L174.535 109.86L148.842 116.947L128.465 99.2281L84.1667 116.947L64.6754 99.2281L50.5 109.86V102.772Z" fill="black"/>
<path d="M50.5 102.772L64.6754 92.1404L84.1667 109.86L131.123 92.1404L148.842 109.86L174.535 102.772L192.254 116.947L233.009 102.772L246.298 109.86L267.561 102.772V109.86L246.298 116.947L233.009 109.86L192.254 124.921L174.535 109.86L148.842 116.947L128.465 99.2281L84.1667 116.947L64.6754 99.2281L50.5 109.86V102.772Z" stroke="black"/>
<path d="M50.5 102.772L64.6754 92.1404L84.1667 109.86L131.123 92.1404L148.842 109.86L174.535 102.772L192.254 116.947L233.009 102.772L246.298 109.86L267.561 102.772V109.86L246.298 116.947L233.009 109.86L192.254 124.921L174.535 109.86L148.842 116.947L128.465 99.2281L84.1667 116.947L64.6754 99.2281L50.5 109.86V102.772Z" stroke="black"/>
<path d="M50.5 194.912L64.6754 184.281L84.1667 202L131.123 184.281L148.842 202L174.535 194.912L192.254 209.088L233.009 194.912L246.298 202L267.561 194.912V202L246.298 209.088L233.009 202L192.254 217.061L174.535 202L148.842 209.088L128.465 191.368L84.1667 209.088L64.6754 191.368L50.5 202V194.912Z" fill="black"/>
<path d="M50.5 194.912L64.6754 184.281L84.1667 202L131.123 184.281L148.842 202L174.535 194.912L192.254 209.088L233.009 194.912L246.298 202L267.561 194.912V202L246.298 209.088L233.009 202L192.254 217.061L174.535 202L148.842 209.088L128.465 191.368L84.1667 209.088L64.6754 191.368L50.5 202V194.912Z" fill="black"/>
<path d="M50.5 194.912L64.6754 184.281L84.1667 202L131.123 184.281L148.842 202L174.535 194.912L192.254 209.088L233.009 194.912L246.298 202L267.561 194.912V202L246.298 209.088L233.009 202L192.254 217.061L174.535 202L148.842 209.088L128.465 191.368L84.1667 209.088L64.6754 191.368L50.5 202V194.912Z" stroke="black"/>
<path d="M50.5 194.912L64.6754 184.281L84.1667 202L131.123 184.281L148.842 202L174.535 194.912L192.254 209.088L233.009 194.912L246.298 202L267.561 194.912V202L246.298 209.088L233.009 202L192.254 217.061L174.535 202L148.842 209.088L128.465 191.368L84.1667 209.088L64.6754 191.368L50.5 202V194.912Z" stroke="black"/>
<path d="M50.5 240.982L64.6754 230.351L84.1667 248.07L131.123 230.351L148.842 248.07H174.535L148.842 255.158L128.465 237.439L84.1667 255.158L64.6754 237.439L50.5 248.07V240.982Z" fill="black" stroke="black"/>
<path d="M50.5 148.842L64.6754 138.21L84.1667 155.93L131.123 138.21L148.842 155.93L174.535 148.842L192.254 163.017L233.009 148.842L246.298 155.93L267.561 148.842V155.93L246.298 163.017L233.009 155.93L192.254 170.991L174.535 155.93L148.842 163.017L128.465 145.298L84.1667 163.017L64.6754 145.298L50.5 155.93V148.842Z" fill="black"/>
<path d="M50.5 148.842L64.6754 138.21L84.1667 155.93L131.123 138.21L148.842 155.93L174.535 148.842L192.254 163.017L233.009 148.842L246.298 155.93L267.561 148.842V155.93L246.298 163.017L233.009 155.93L192.254 170.991L174.535 155.93L148.842 163.017L128.465 145.298L84.1667 163.017L64.6754 145.298L50.5 155.93V148.842Z" fill="black"/>
<path d="M50.5 148.842L64.6754 138.21L84.1667 155.93L131.123 138.21L148.842 155.93L174.535 148.842L192.254 163.017L233.009 148.842L246.298 155.93L267.561 148.842V155.93L246.298 163.017L233.009 155.93L192.254 170.991L174.535 155.93L148.842 163.017L128.465 145.298L84.1667 163.017L64.6754 145.298L50.5 155.93V148.842Z" stroke="black"/>
<path d="M50.5 148.842L64.6754 138.21L84.1667 155.93L131.123 138.21L148.842 155.93L174.535 148.842L192.254 163.017L233.009 148.842L246.298 155.93L267.561 148.842V155.93L246.298 163.017L233.009 155.93L192.254 170.991L174.535 155.93L148.842 163.017L128.465 145.298L84.1667 163.017L64.6754 145.298L50.5 155.93V148.842Z" stroke="black"/>
<path d="M232.463 162.493L238.205 132.186L261.041 118.953L256.953 140.527L287.537 92.0456L339.607 57.2129L305.641 98.1362L304.817 116.604L376.491 37.595L416.878 36.2004L390.773 81.2735L414.04 68.1218L393.322 95.5915L389.137 117.68L369.744 143.804L324.492 170.883L350.313 175.775L300.585 189.767L313.137 196.933L288.468 202.902L248.89 202.854L177.045 257.353L223.023 212.32L276.524 167.116L345.593 113.155L381.908 79.5942L291.037 146.985L225.651 198.451L227.478 177.512L219.823 147.328L232.463 162.493Z" fill="white" stroke="white" stroke-width="3"/>
<path d="M231.993 156.054L237.509 126.94L259.333 114.207L255.406 134.932L284.666 88.3371L334.434 54.8286L301.951 94.1675L301.145 111.905L369.682 35.9486L408.255 34.5668L383.275 77.8831L405.511 65.2275L385.695 91.6315L381.675 112.85L363.126 137.96L319.878 164.014L344.534 168.686L297.026 182.176L309.006 189.046L285.439 194.804L247.64 194.799L178.965 247.216L222.925 203.918L274.07 160.447L340.092 108.55L374.811 76.2795L287.952 141.098L225.449 190.595L227.216 170.483L219.937 141.502L231.993 156.054Z" fill="#FF0000" stroke="#FF0000" stroke-width="3"/>
</svg>
